<?xml version="1.0" encoding="UTF-8"?>
<svg version="1.1" xmlns="http://www.w3.org/2000/svg" width="578" height="286">
<path d="M0 0 C190.74 0 381.48 0 578 0 C578 94.38 578 188.76 578 286 C387.26 286 196.52 286 0 286 C0 191.62 0 97.24 0 0 Z " fill="#020202" transform="translate(0,0)"/>
<path d="M0 0 C15.82993487 -0.07028328 31.65982716 -0.12308235 47.48987961 -0.15543652 C54.84112535 -0.17086276 62.19227378 -0.1918704 69.54345703 -0.22631836 C75.95560026 -0.25635145 82.36767296 -0.27560579 88.77988458 -0.28226548 C92.17072555 -0.28615437 95.56136488 -0.29520353 98.95214081 -0.31719017 C102.75043997 -0.33910093 106.54832708 -0.34196116 110.34667969 -0.34057617 C112.00717598 -0.35675491 112.00717598 -0.35675491 113.70121765 -0.3732605 C122.03417866 -0.34057659 130.90784751 0.27189834 138 5 C139.34464569 5.29697696 140.70117816 5.54246636 142.0625 5.75 C146.95952426 6.73897558 150.54270866 8.9433616 154.7109375 11.62109375 C157.07253927 13.16313825 157.07253927 13.16313825 160.3125 14.0625 C163.83014753 15.28958635 165.40056977 17.34011791 168 20 C169.33822532 20.87438794 170.69305672 21.72359792 172.05859375 22.5546875 C178.71143077 26.91341965 183.83767107 32.76669275 189.24609375 38.5390625 C190.44685547 39.78429688 190.44685547 39.78429688 191.671875 41.0546875 C192.74066895 42.19139893 192.74066895 42.19139893 193.83105469 43.35107422 C195.8887617 45.15129325 195.8887617 45.15129325 198.43652344 45.55444336 C202.16540724 44.74793906 203.72039073 42.81030778 206.34375 40.07421875 C206.83532593 39.57082474 207.32690186 39.06743073 207.83337402 38.54878235 C209.40123498 36.9397708 210.95128299 35.31492862 212.5 33.6875 C214.05114568 32.07343094 215.60587383 30.46313531 217.16662598 28.85835266 C218.5855937 27.39698626 219.9933037 25.9247137 221.40039062 24.4519043 C223.82743097 22.16276397 226.12244103 20.64756615 229 19 C230.2065625 17.7315625 230.2065625 17.7315625 231.4375 16.4375 C234.3406379 13.67597858 236.19707958 13.14805145 240 12 C241.61491451 11.20907771 243.21820314 10.39419975 244.8125 9.5625 C248.59558217 7.6428945 252.27445053 5.99882557 256.34667969 4.80395508 C258.16503545 4.25299395 259.96712867 3.64618709 261.75146484 2.9934082 C275.01745093 -1.33521119 288.63611521 -0.43761741 302.4375 -0.25 C305.01886632 -0.22990019 307.60024779 -0.2116556 310.18164062 -0.1953125 C316.45476199 -0.15160364 322.72730883 -0.08496853 329 0 C329.0759439 7.35060015 329.12855502 14.70109947 329.16479492 22.05200195 C329.17989944 24.55366802 329.20038429 27.05530753 329.22631836 29.55688477 C329.26262775 33.14866684 329.27970975 36.74009941 329.29296875 40.33203125 C329.30845261 41.45398392 329.32393646 42.57593658 329.33988953 43.73188782 C329.34011612 44.77274033 329.34034271 45.81359283 329.34057617 46.88598633 C329.35056892 48.2616552 329.35056892 48.2616552 329.36076355 49.66511536 C329 52 329 52 327.78665161 53.79359436 C325.43456458 55.3818005 323.90308326 55.39053344 321.07299805 55.41650391 C320.07153244 55.43307037 319.07006683 55.44963684 318.03825378 55.46670532 C316.95699722 55.46995819 315.87574066 55.47321106 314.76171875 55.4765625 C313.64819534 55.49214203 312.53467194 55.50772156 311.3874054 55.52377319 C307.82077781 55.57137505 304.25434542 55.59906455 300.6875 55.625 C297.13150637 55.66155312 293.57562164 55.70228482 290.01972961 55.74765015 C287.80607955 55.77474804 285.59235068 55.79615457 283.37858582 55.81118774 C278.4817188 55.86089718 273.81200211 55.96926284 269 57 C269 57.66 269 58.32 269 59 C267.02 59.33 265.04 59.66 263 60 C263 60.66 263 61.32 263 62 C262.29230469 62.41894531 261.58460938 62.83789062 260.85546875 63.26953125 C257.4973007 65.3046454 254.99131143 67.86290291 252.3125 70.6875 C250.57842567 72.51368984 248.82935827 74.26490818 247 76 C246.34 76 245.68 76 245 76 C244.7215625 76.71671875 244.443125 77.4334375 244.15625 78.171875 C242.66434689 81.82098936 240.93932325 85.34456551 239.21875 88.890625 C236.13709507 96.75279591 235.73076115 104.18000386 235.875 112.5625 C235.88853516 114.07553711 235.88853516 114.07553711 235.90234375 115.61914062 C235.92566644 118.07968457 235.95839237 120.53970896 236 123 C236.66 123 237.32 123 238 123 C239.80230168 126.82989106 240.19622241 129.78121808 240 134 C240.66 134 241.32 134 242 134 C242.18304688 134.66773438 242.36609375 135.33546875 242.5546875 136.0234375 C244.64405023 140.32639533 247.75966655 143.27276123 251.125 146.625 C251.764375 147.29273438 252.40375 147.96046875 253.0625 148.6484375 C257.45823176 153.0618228 261.05966853 155.15513719 267 157 C268.2065625 157.7734375 268.2065625 157.7734375 269.4375 158.5625 C276.46384379 162.50410749 284.74627793 162.32561299 292.59765625 162.4140625 C293.67252792 162.43342865 294.7473996 162.4527948 295.85484314 162.4727478 C299.257317 162.53209301 302.65982553 162.57874772 306.0625 162.625 C308.38217547 162.66322128 310.70183738 162.70227537 313.02148438 162.7421875 C318.68086837 162.83775703 324.34033539 162.92293378 330 163 C330.02526648 170.52969652 330.04283141 178.0593822 330.05493164 185.58911133 C330.0599737 188.15291757 330.06680714 190.71672091 330.07543945 193.28051758 C330.08751064 196.95655021 330.09322942 200.63254498 330.09765625 204.30859375 C330.10281754 205.46274277 330.10797882 206.61689178 330.11329651 207.80601501 C330.11340981 209.3975515 330.11340981 209.3975515 330.11352539 211.02124023 C330.115746 211.96055893 330.11796661 212.89987762 330.12025452 213.86766052 C330 216 330 216 329 217 C327.12980079 217.10963684 325.25545154 217.14910338 323.38208008 217.16113281 C322.18025589 217.17074036 320.9784317 217.1803479 319.7401886 217.19024658 C318.42987167 217.19449646 317.11955475 217.19874634 315.76953125 217.203125 C314.41769915 217.20887621 313.06586708 217.21463394 311.71403503 217.22039795 C308.87339904 217.23092058 306.03279143 217.23675402 303.19213867 217.24023438 C299.56166471 217.24570226 295.93156902 217.26968773 292.30121326 217.29820633 C289.50527376 217.31688903 286.70942399 217.32204143 283.91342735 217.32357025 C281.92708871 217.32805155 279.94079821 217.34667786 277.95454407 217.36553955 C276.73695908 217.36253845 275.51937408 217.35953735 274.26489258 217.35644531 C273.19757401 217.36009094 272.13025543 217.36373657 271.03059387 217.36749268 C267.5010284 216.93949423 265.11785115 215.66238082 262 214 C260.3603125 213.814375 260.3603125 213.814375 258.6875 213.625 C254.51712019 212.91815597 251.84790283 211.44962229 248.25 209.31640625 C246.22170568 208.12971322 244.19071064 207.11616262 242.0625 206.125 C236.54728505 203.41169144 230.81393818 199.90303385 226.51953125 195.47265625 C224.9883372 193.86513058 224.9883372 193.86513058 222.68432617 192.68823242 C219.83077661 190.89357164 217.8340706 188.97029098 215.53125 186.515625 C214.71269531 185.66355469 213.89414062 184.81148437 213.05078125 183.93359375 C211.34244187 182.13630561 209.64196081 180.33151701 207.94921875 178.51953125 C207.13066406 177.67261719 206.31210937 176.82570312 205.46875 175.953125 C204.73076172 175.17098633 203.99277344 174.38884766 203.23242188 173.58300781 C201.12166179 171.77168021 201.12166179 171.77168021 198.54101562 171.95263672 C195.20464722 173.32783084 193.37656674 175.20557833 190.875 177.8046875 C190.40562012 178.28447052 189.93624023 178.76425354 189.45263672 179.25857544 C187.95855632 180.78815081 186.47855347 182.33042247 185 183.875 C183.51981316 185.41066972 182.03671853 186.94322016 180.54736328 188.47000122 C179.19413096 189.85874254 177.85069472 191.25700959 176.5078125 192.65576172 C174.11955429 194.88824374 171.84323377 196.41546297 169 198 C167.54723681 199.14760467 166.10953761 200.31453537 164.6875 201.5 C160.58639103 204.72278251 156.93145484 206.45779958 152 208 C150.24789091 208.64008939 148.49803585 209.28636917 146.75 209.9375 C141.64801809 211.79536456 136.50311335 213.50092359 131.3359375 215.16796875 C129.07019686 215.78685236 129.07019686 215.78685236 128 217 C126.3804366 217.09603022 124.75666917 217.12187855 123.13426208 217.12025452 C122.08111816 217.12162918 121.02797424 217.12300385 119.94291687 217.12442017 C118.19504631 217.11902725 118.19504631 217.11902725 116.41186523 217.11352539 C114.58285172 217.11374443 114.58285172 217.11374443 112.71688843 217.1139679 C109.36372489 217.11338893 106.01062226 217.10835968 102.65746951 217.10139394 C99.15674438 217.09515983 95.65601852 217.09455656 92.1552887 217.09336853 C85.52190344 217.09025538 78.88853459 217.08204222 72.25515658 217.07201904 C64.70509793 217.06085739 57.15503851 217.05534732 49.60497367 217.05032361 C34.06997294 217.03985959 18.53498858 217.02226047 3 217 C3 215.68 3 214.36 3 213 C4.98 212.67 6.96 212.34 9 212 C9 211.34 9 210.68 9 210 C10.66179536 208.99192561 12.32973986 207.99398633 14 207 C16.04862063 205.2401477 18.034004 203.4712399 20 201.625 C20.50789063 201.15578125 21.01578125 200.6865625 21.5390625 200.203125 C23.03672353 198.81298836 24.51903344 197.40788185 26 196 C26.88300781 195.17628906 27.76601563 194.35257813 28.67578125 193.50390625 C31.08830826 190.90486454 32.58369457 188.46421416 34.1875 185.3125 C36.81944444 180.18055556 36.81944444 180.18055556 39 178 C39.7166207 175.68152126 40.38242027 173.34680297 41 171 C41.33 170.01 41.66 169.02 42 168 C42.26375969 163.67114398 42.23156849 159.33601335 42.25 155 C42.270625 153.81792969 42.29125 152.63585937 42.3125 151.41796875 C42.38012667 136.08362214 38.27942367 126.04515952 28 115 C27.13375 114.05125 26.2675 113.1025 25.375 112.125 C22.94480012 109.95061063 21.02237406 109.11350623 18 108 C17 107 16 106 15 105 C13.0282696 103.94535351 11.02237052 102.95394836 9 102 C7.64484468 101.31445084 6.29071403 100.62687319 4.9375 99.9375 C2.67825138 98.80139601 0.48491611 97.79844544 -1.875 96.875 C-4 96 -4 96 -6 94 C-8.46974528 92.9794441 -10.9262494 92.03093747 -13.4375 91.125 C-14.1581665 90.86033936 -14.87883301 90.59567871 -15.62133789 90.32299805 C-17.0734849 89.79051718 -18.52652202 89.26045704 -19.98046875 88.73291016 C-21.71818605 88.10227339 -23.45312236 87.46398305 -25.1875 86.82421875 C-30.25010468 84.94629881 -30.25010468 84.94629881 -35.390625 83.30078125 C-41.27439867 81.56967097 -45.36431937 78.98598297 -50 75 C-50.825 74.37351562 -51.65 73.74703125 -52.5 73.1015625 C-56.25036837 69.94890909 -58.57793577 67.46338662 -59.953125 62.6953125 C-60.40704382 57.23634148 -60.12024058 53.02909443 -56.62109375 48.69140625 C-48.73093766 40.1783431 -48.73093766 40.1783431 -42.95703125 39.90234375 C-42.24933594 39.91394531 -41.54164063 39.92554688 -40.8125 39.9375 C-39.554375 39.958125 -38.29625 39.97875 -37 40 C-37 40.66 -37 41.32 -37 42 C-36.12988281 41.94779297 -36.12988281 41.94779297 -35.2421875 41.89453125 C-29.96470768 41.71164829 -26.51568352 41.98954432 -22 45 C-20.82824219 45.77150391 -20.82824219 45.77150391 -19.6328125 46.55859375 C-18.80523437 47.17863281 -17.97765625 47.79867187 -17.125 48.4375 C-15.95324219 49.30181641 -15.95324219 49.30181641 -14.7578125 50.18359375 C-13 53 -13 53 -13 65 C3.5 65 20 65 37 65 C36.37864409 51.38313436 36.37864409 51.38313436 33.125 38.75 C32.82400391 37.90864502 32.52300781 37.06729004 32.21289062 36.20043945 C29.07046876 28.1071475 24.31900339 22.7830165 18 17 C16.8293421 15.75373711 15.66208048 14.50426475 14.5 13.25 C10.78004321 9.54823371 6.47868233 6.65767066 2.16015625 3.69921875 C1.44730469 3.13847656 0.73445313 2.57773437 0 2 C0 1.34 0 0.68 0 0 Z " fill="#FCFCFC" transform="translate(235,17)"/>
<path d="M0 0 C45 0 45 0 53 4 C53.825 4.309375 54.65 4.61875 55.5 4.9375 C66.94551507 9.80184391 77.92853042 20.1070449 82.75 31.625 C85.25833809 38.93324431 85.4769246 45.93354902 85.5 53.625 C85.50612305 54.75631348 85.51224609 55.88762695 85.51855469 57.05322266 C85.40779762 64.52715271 84.77925913 71.98921688 82 79 C81.01 79.66 80.02 80.32 79 81 C78.56816406 81.73347656 78.13632812 82.46695313 77.69140625 83.22265625 C75.52666046 86.77723883 72.87415345 89.50936106 69.9375 92.4375 C69.36112793 93.01226074 68.78475586 93.58702148 68.19091797 94.17919922 C48.32565553 113.48394803 30.59725986 108 0 108 C0 72.36 0 36.72 0 0 Z " fill="#030303" transform="translate(311,72)"/>
<path d="M0 0 C9.9 0 19.8 0 30 0 C30.0656781 48.95116216 29.90360479 97.89689452 29.55461788 146.84678876 C29.49210902 155.62927765 29.43261079 164.41178637 29.37324238 173.19429696 C29.25194162 191.12955389 29.12685796 209.06478145 29 227 C19.1 227 9.2 227 -1 227 C-1.0301224 208.29167181 -1.05121736 189.58334822 -1.0625 170.875 C-1.06315145 169.82609738 -1.06315145 169.82609738 -1.06381607 168.75600481 C-1.08910359 126.89699481 -0.95011978 85.04458418 -0.5 43.1875 C-0.48804218 42.07480492 -0.47608437 40.96210983 -0.46376419 39.81569672 C-0.3201617 26.54365857 -0.16509055 13.27178746 0 0 Z " fill="#D14646" transform="translate(8,12)"/>
<path d="M0 0 C8.91 0 17.82 0 27 0 C27 74.58 27 149.16 27 226 C18.09 226 9.18 226 0 226 C0 151.42 0 76.84 0 0 Z " fill="#B88D00" transform="translate(49,12)"/>
<path d="M0 0 C8.25 0 16.5 0 25 0 C25.1137625 46.85089808 25.04580254 93.69695076 24.59428024 140.5461235 C24.56289245 143.83389242 24.53278243 147.12167089 24.50296021 150.40945435 C24.26851885 175.95031777 23.85163415 201.47187451 23 227 C15.08 227 7.16 227 -1 227 C-1.03026605 209.22917257 -1.05127215 191.45834941 -1.0625 173.6875 C-1.0629343 173.0201458 -1.06336861 172.3527916 -1.06381607 171.66521454 C-1.09032899 129.77401491 -0.92591619 87.88943323 -0.5 46 C-0.48804218 44.82323574 -0.47608437 43.64647148 -0.46376419 42.4340477 C-0.31914199 28.28924766 -0.16398511 14.14458818 0 0 Z " fill="#E79034" transform="translate(90,11)"/>
<path d="M0 0 C4.4 2.2 4.4 2.2 6.0625 5.4375 C12.54837996 16.39983085 24.99890918 27.71389614 37 32 C38.8144927 32.7241937 40.62690623 33.45361276 42.4375 34.1875 C43.95799227 34.7925245 45.47870673 35.3969924 47 36 C47 36.66 47 37.32 47 38 C47.556875 38.12375 48.11375 38.2475 48.6875 38.375 C51.22114364 39.05976855 53.57921032 39.99133763 56 41 C56 41.66 56 42.32 56 43 C57.794375 42.938125 57.794375 42.938125 59.625 42.875 C63.4943171 42.88852908 66.3748333 43.54993332 70 45 C70.763125 45.29132813 71.52625 45.58265625 72.3125 45.8828125 C74.89301458 46.88197516 77.4464484 47.93403142 80 49 C80.68320313 49.26296875 81.36640625 49.5259375 82.0703125 49.796875 C88.58011965 52.59055742 93.82326307 57.32263902 98 63 C99.38013814 67.56394889 98.42541891 70.89391083 96.75 75.25 C95.88375 76.61125 95.88375 76.61125 95 78 C94.2265625 79.36125 94.2265625 79.36125 93.4375 80.75 C87.66029507 86.08280455 77.78887565 85.33968682 70.3125 85.3125 C69.41466797 85.32861328 68.51683594 85.34472656 67.59179688 85.36132812 C61.05719547 85.36611538 55.96794043 84.71776921 50.9609375 80.1328125 C50.43757813 79.47023438 49.91421875 78.80765625 49.375 78.125 C47.35996913 75.63344156 45.53596596 73.58640444 43.125 71.4375 C41 69 41 69 40 62 C20.2 61.505 20.2 61.505 0 61 C0 40.87 0 20.74 0 0 Z " fill="#F8F8F8" transform="translate(129,103)"/>
<path d="M0 0 C2.64 0 5.28 0 8 0 C8.84114171 1.43294498 9.67265687 2.87154405 10.5 4.3125 C10.9640625 5.11300781 11.428125 5.91351563 11.90625 6.73828125 C13 9 13 9 13 12 C13.66 12 14.32 12 15 12 C15.1546875 10.9790625 15.1546875 10.9790625 15.3125 9.9375 C16.14725019 6.37084011 17.49472754 3.33777806 19 0 C21.64 0 24.28 0 27 0 C27 7.92 27 15.84 27 24 C25.35 24 23.7 24 22 24 C21.67 19.05 21.34 14.1 21 9 C19.35 12.63 17.7 16.26 16 20 C14.68 20 13.36 20 12 20 C10.35 16.37 8.7 12.74 7 9 C6.67 14.28 6.34 19.56 6 25 C4.02 25 2.04 25 0 25 C0 16.75 0 8.5 0 0 Z " fill="#F0F0F0" transform="translate(92,250)"/>
<path d="M0 0 C1.98 0 3.96 0 6 0 C6 0.66 6 1.32 6 2 C6.99 1.34 7.98 0.68 9 0 C11.9375 -0.375 11.9375 -0.375 15 0 C18.48941586 2.8292561 19.85908815 4.778764 20.375 9.25 C19.87147147 14.28528526 18.75600462 15.65225675 15 19 C11.8125 19.5 11.8125 19.5 9 19 C8.34 18.34 7.68 17.68 7 17 C6.67 19.64 6.34 22.28 6 25 C4.02 25 2.04 25 0 25 C0 16.75 0 8.5 0 0 Z " fill="#E6E6E6" transform="translate(183,256)"/>
<path d="M0 0 C3.25 0.375 3.25 0.375 6.125 2.3125 C8.61004541 5.89388897 8.99127589 7.9402983 8.734375 12.21484375 C7.9226873 15.83470907 6.2640178 17.34381409 3.25 19.375 C-0.0625 19.6875 -0.0625 19.6875 -2.75 19.375 C-3.08 18.385 -3.41 17.395 -3.75 16.375 C-4.41 16.375 -5.07 16.375 -5.75 16.375 C-5.75 19.345 -5.75 22.315 -5.75 25.375 C-7.4 25.375 -9.05 25.375 -10.75 25.375 C-10.75 17.455 -10.75 9.535 -10.75 1.375 C-8.44 1.375 -6.13 1.375 -3.75 1.375 C-2.75 0.375 -2.75 0.375 0 0 Z " fill="#F1F1F1" transform="translate(514.75,255.625)"/>
<path d="M0 0 C2.31 0 4.62 0 7 0 C7.33 6.27 7.66 12.54 8 19 C9.65 19 11.3 19 13 19 C14.6498007 15.70039859 14.38258361 12.00872116 14.5625 8.375 C14.60568359 7.57320313 14.64886719 6.77140625 14.69335938 5.9453125 C14.79951457 3.9637489 14.90026855 1.98189729 15 0 C16.98 0 18.96 0 21 0 C21.10822792 3.06345144 21.18741479 6.1230601 21.25 9.1875 C21.30027344 10.48397461 21.30027344 10.48397461 21.3515625 11.80664062 C21.41612328 16.01923169 21.37995841 18.36592411 19.171875 22.05078125 C15.74834972 25.12333362 12.52327435 25.33458356 8.00390625 25.29296875 C4.85492778 24.83259178 3.165379 23.23099654 1 21 C-0.17426264 18.65147472 -0.11508173 17.26225935 -0.09765625 14.6484375 C-0.09443359 13.79765625 -0.09121094 12.946875 -0.08789062 12.0703125 C-0.07951172 11.18085938 -0.07113281 10.29140625 -0.0625 9.375 C-0.05798828 8.4778125 -0.05347656 7.580625 -0.04882812 6.65625 C-0.03702591 4.43743352 -0.02056155 2.21874982 0 0 Z " fill="#EDEDED" transform="translate(253,250)"/>
<path d="M0 0 C0.99 0.33 1.98 0.66 3 1 C3 2.65 3 4.3 3 6 C-0.96 5.67 -4.92 5.34 -9 5 C-8.67 5.99 -8.34 6.98 -8 8 C-5.47834886 9.21368183 -5.47834886 9.21368183 -2.5 10.125 C2.93050193 11.93050193 2.93050193 11.93050193 4 13 C4.69288203 20.04430065 4.69288203 20.04430065 2.1875 23.5 C-2.44714354 25.68100872 -6.95390727 25.67177086 -12 25 C-12.99 24.34 -13.98 23.68 -15 23 C-15.1875 20.375 -15.1875 20.375 -15 18 C-14.505 18.165 -14.01 18.33 -13.5 18.5 C-9.96555911 19.20688818 -6.60309299 19.06005155 -3 19 C-2.67 18.01 -2.34 17.02 -2 16 C-2.77085938 15.81824219 -3.54171875 15.63648438 -4.3359375 15.44921875 C-5.33882812 15.19785156 -6.34171875 14.94648438 -7.375 14.6875 C-8.37273438 14.44386719 -9.37046875 14.20023437 -10.3984375 13.94921875 C-13 13 -13 13 -15 10 C-15.4375 7.0625 -15.4375 7.0625 -15 4 C-11.01533479 -1.0472426 -5.92117378 -0.61218915 0 0 Z " fill="#E9E9E9" transform="translate(48,250)"/>
<path d="M0 0 C1.08078072 0.24114784 1.08078072 0.24114784 2.18339539 0.48716736 C4.86950538 0.97624022 7.33982204 1.15601745 10.06567383 1.20532227 C11.04631302 1.22526749 12.02695221 1.24521271 13.03730774 1.26576233 C14.0833165 1.28247482 15.12932526 1.29918732 16.20703125 1.31640625 C17.28756271 1.33718735 18.36809418 1.35796844 19.48136902 1.37937927 C22.92501611 1.44464036 26.36873795 1.50365075 29.8125 1.5625 C32.15039828 1.60570751 34.48828907 1.64932251 36.82617188 1.69335938 C42.55070278 1.80029772 48.27530765 1.90210727 54 2 C54.02526648 9.52969652 54.04283141 17.0593822 54.05493164 24.58911133 C54.0599737 27.15291757 54.06680714 29.71672091 54.07543945 32.28051758 C54.08751064 35.95655021 54.09322942 39.63254498 54.09765625 43.30859375 C54.10281754 44.46274277 54.10797882 45.61689178 54.11329651 46.80601501 C54.11337204 47.86703934 54.11344757 48.92806366 54.11352539 50.02124023 C54.115746 50.96055893 54.11796661 51.89987762 54.12025452 52.86766052 C54 55 54 55 53 56 C51.12980079 56.10963684 49.25545154 56.14910338 47.38208008 56.16113281 C46.18025589 56.17074036 44.9784317 56.1803479 43.7401886 56.19024658 C42.42987167 56.19449646 41.11955475 56.19874634 39.76953125 56.203125 C38.41769915 56.20887621 37.06586708 56.21463394 35.71403503 56.22039795 C32.87339904 56.23092058 30.03279143 56.23675402 27.19213867 56.24023438 C23.56166471 56.24570226 19.93156902 56.26968773 16.30121326 56.29820633 C13.50527376 56.31688903 10.70942399 56.32204143 7.91342735 56.32357025 C5.92708871 56.32805155 3.94079821 56.34667786 1.95454407 56.36553955 C0.73695908 56.36253845 -0.48062592 56.35953735 -1.73510742 56.35644531 C-2.80242599 56.36009094 -3.86974457 56.36373657 -4.96940613 56.36749268 C-8.49068038 55.94049963 -10.93223116 54.73793635 -14 53 C-11.48479453 51.74239727 -9.99573883 52.28955412 -7.30001831 52.72213745 C-2.18157356 53.34049083 3.00298646 53.24532318 8.15234375 53.31640625 C10.03524864 53.3475779 10.03524864 53.3475779 11.95619202 53.37937927 C15.27199117 53.43348743 18.58780275 53.48379613 21.90368652 53.53222656 C25.2958687 53.5827194 28.68796897 53.63821126 32.08007812 53.69335938 C38.71998808 53.80094581 45.359949 53.9002613 52 54 C52 37.17 52 20.34 52 3 C36.38323139 3.07910497 36.38323139 3.07910497 20.76660156 3.18017578 C18.80794492 3.18601733 16.84928585 3.19111369 14.890625 3.1953125 C13.36671143 3.2106604 13.36671143 3.2106604 11.81201172 3.22631836 C10.83796387 3.22656006 9.86391602 3.22680176 8.86035156 3.22705078 C8.01651917 3.231492 7.17268677 3.23593323 6.30328369 3.24050903 C3.79458533 2.97855059 2.16671042 2.25924304 0 1 C0 0.67 0 0.34 0 0 Z " fill="#ABABAB" transform="translate(511,178)"/>
<path d="M0 0 C0.66 0.33 1.32 0.66 2 1 C0.37660195 2.70884005 -1.29319053 4.37446717 -3 6 C-3.66 6 -4.32 6 -5 6 C-4.67 7.32 -4.34 8.64 -4 10 C34.61 10 73.22 10 113 10 C112.67 10.66 112.34 11.32 112 12 C70.75 12 29.5 12 -13 12 C-13 10.68 -13 9.36 -13 8 C-11.02 7.67 -9.04 7.34 -7 7 C-7 6.34 -7 5.68 -7 5 C-5.35666496 3.96210419 -3.68756133 2.96432076 -2 2 C-1.34 1.34 -0.68 0.68 0 0 Z " fill="#C0C0C0" transform="translate(251,222)"/>
<path d="M0 0 C11.88975473 -0.56221257 11.88975473 -0.56221257 16 3 C17.50156874 6.00313748 17.09281204 8.79067522 17.0625 12.125 C17.05347656 13.40632813 17.04445312 14.68765625 17.03515625 16.0078125 C17.02355469 16.99523437 17.01195312 17.98265625 17 19 C15.02 19 13.04 19 11 19 C10.67 18.34 10.34 17.68 10 17 C9.34 17.66 8.68 18.32 8 19 C2.02283105 19.543379 2.02283105 19.543379 -1 17.9375 C-2.63378851 14.77203476 -1.85267564 12.34979714 -1 9 C2.08888522 6.94074319 2.70935927 6.7609626 6.1875 6.875 C8.0746875 6.936875 8.0746875 6.936875 10 7 C10 6.01 10 5.02 10 4 C6.7 4.33 3.4 4.66 0 5 C0 3.35 0 1.7 0 0 Z " fill="#E8E8E8" transform="translate(126,256)"/>
<path d="M0 0 C11.73417302 -0.55485582 11.73417302 -0.55485582 16 3 C17 4 17 4 17.09765625 7.37890625 C17.09098369 8.77347077 17.07902532 10.16801743 17.0625 11.5625 C17.05798828 12.27341797 17.05347656 12.98433594 17.04882812 13.71679688 C17.03700864 15.47790013 17.01907263 17.23896036 17 19 C15.02 19 13.04 19 11 19 C10.67 18.34 10.34 17.68 10 17 C9.34 17.66 8.68 18.32 8 19 C4.38350702 19.47171648 2.62687488 19.41791658 -0.4375 17.375 C-2 15 -2 15 -1.9375 11.875 C-1 9 -1 9 2 7 C4.26171875 6.8046875 4.26171875 6.8046875 6.6875 6.875 C7.89986328 6.90207031 7.89986328 6.90207031 9.13671875 6.9296875 C10.05904297 6.96449219 10.05904297 6.96449219 11 7 C10.67 6.34 10.34 5.68 10 5 C6.7 5 3.4 5 0 5 C0 3.35 0 1.7 0 0 Z " fill="#EAEAEA" transform="translate(470,256)"/>
<path d="M0 0 C5.61 0 11.22 0 17 0 C17 1.65 17 3.3 17 5 C13.37 5 9.74 5 6 5 C6 6.65 6 8.3 6 10 C9.3 10 12.6 10 16 10 C16 11.32 16 12.64 16 14 C12.7 14 9.4 14 6 14 C6 15.98 6 17.96 6 20 C9.63 20 13.26 20 17 20 C17 21.32 17 22.64 17 24 C11.39 24 5.78 24 0 24 C0 16.08 0 8.16 0 0 Z " fill="#F9F9F9" transform="translate(58,250)"/>
<path d="M0 0 C4.56944444 2.13888889 4.56944444 2.13888889 6 5 C6 6.98 6 8.96 6 11 C1.71 11 -2.58 11 -7 11 C-6.01 12.485 -6.01 12.485 -5 14 C0.445 13.505 0.445 13.505 6 13 C6 14.65 6 16.3 6 18 C1.33386563 19.30393131 -3.1964029 19.79930614 -8 19 C-10.83564514 17.29609793 -11.34933346 16.08124422 -13 13 C-13.72380155 9.90574837 -13.52203325 8.28880946 -13 5 C-9.51956715 -0.22064927 -5.89847185 -1.12011385 0 0 Z " fill="#E9E9E9" transform="translate(349,256)"/>
<path d="M0 0 C1.91541138 -0.10841951 3.83259773 -0.18578079 5.75 -0.25 C7.35101563 -0.31960937 7.35101563 -0.31960937 8.984375 -0.390625 C12 0 12 0 14.375 1.5625 C16.60751644 4.91127466 16.39761062 7.26451318 16.25 11.25 C16.21390625 12.51328125 16.1778125 13.7765625 16.140625 15.078125 C16.07101563 16.52445312 16.07101563 16.52445312 16 18 C14.35 18 12.7 18 11 18 C11 17.34 11 16.68 11 16 C10.34 16 9.68 16 9 16 C9 16.66 9 17.32 9 18 C6.20129973 19.39935013 4.09501208 19.25265405 1 19 C-0.875 17.875 -0.875 17.875 -2 16 C-2.64089522 10.87283825 -2.64089522 10.87283825 -0.76953125 8.32421875 C1.5234685 6.6082653 2.85734653 6.68944985 5.6875 6.8125 C6.49574219 6.83957031 7.30398437 6.86664063 8.13671875 6.89453125 C8.75160156 6.92933594 9.36648437 6.96414063 10 7 C9.67 6.34 9.34 5.68 9 5 C5.7 5 2.4 5 -1 5 C-0.67 3.35 -0.34 1.7 0 0 Z " fill="#EEEEEE" transform="translate(208,256)"/>
<path d="M0 0 C1.28583984 0.00966797 1.28583984 0.00966797 2.59765625 0.01953125 C4.9375 0.1875 4.9375 0.1875 7.9375 1.1875 C7.9375 2.8375 7.9375 4.4875 7.9375 6.1875 C7.25042969 6.08050781 6.56335938 5.97351563 5.85546875 5.86328125 C4.95441406 5.74339844 4.05335937 5.62351563 3.125 5.5 C2.23167969 5.37238281 1.33835937 5.24476563 0.41796875 5.11328125 C-2.08465418 4.96539359 -2.08465418 4.96539359 -3.8671875 6.41796875 C-5.29276293 8.52837943 -5.43721406 9.66065188 -5.375 12.1875 C-5.37113281 12.868125 -5.36726562 13.54875 -5.36328125 14.25 C-5.15158293 16.50941109 -5.15158293 16.50941109 -3.0625 19.1875 C-0.39596095 19.55210453 -0.39596095 19.55210453 2.5625 19.375 C3.56539062 19.34792969 4.56828125 19.32085937 5.6015625 19.29296875 C6.75785156 19.24076172 6.75785156 19.24076172 7.9375 19.1875 C7.5625 21.625 7.5625 21.625 6.9375 24.1875 C3.20586358 26.05331821 -0.99924501 25.74214677 -5.0625 25.1875 C-8.48361478 23.51171004 -10.52702082 21.11241859 -12.4375 17.8125 C-13.62393977 12.82945296 -13.73887983 9.46779039 -11.3125 4.875 C-7.89312265 0.79074372 -5.26549575 -0.08736117 0 0 Z " fill="#EBEBEB" transform="translate(20.0625,249.8125)"/>
<path d="M0 0 C1.65 0 3.3 0 5 0 C5.67119549 1.4562545 6.33681807 2.91507867 7 4.375 C7.556875 5.59316406 7.556875 5.59316406 8.125 6.8359375 C9 9 9 9 9 11 C9.66 11 10.32 11 11 11 C11.13277344 10.37351562 11.26554687 9.74703125 11.40234375 9.1015625 C11.57894531 8.28429687 11.75554687 7.46703125 11.9375 6.625 C12.11152344 5.81289063 12.28554688 5.00078125 12.46484375 4.1640625 C13 2 13 2 14 0 C15.98 0 17.96 0 20 0 C18.42259949 6.00519141 16.39577091 11.77355933 14 17.5 C13.505 18.6859375 13.01 19.871875 12.5 21.09375 C11 24 11 24 8 26 C4.8125 26.125 4.8125 26.125 2 26 C2 24.68 2 23.36 2 22 C3.32 21.67 4.64 21.34 6 21 C5.60924218 15.13863263 3.64779649 10.704879 1.05859375 5.453125 C0 3 0 3 0 0 Z " fill="#E9E9E9" transform="translate(422,256)"/>
<path d="M0 0 C1.98 0 3.96 0 6 0 C6 6.27 6 12.54 6 19 C4.02 19 2.04 19 0 19 C-0.33 18.34 -0.66 17.68 -1 17 C-1.66 17.66 -2.32 18.32 -3 19 C-8.11957412 19.54463554 -8.11957412 19.54463554 -10.6796875 17.9609375 C-12.71565552 14.93710334 -12.3152465 11.82061542 -12.1875 8.3125 C-12.17396484 7.61060547 -12.16042969 6.90871094 -12.14648438 6.18554688 C-12.11120182 4.45670171 -12.05739583 2.72825235 -12 1 C-10.35 1 -8.7 1 -7 1 C-6.67 4.96 -6.34 8.92 -6 13 C-4.35 13.33 -2.7 13.66 -1 14 C-0.67 9.38 -0.34 4.76 0 0 Z " fill="#E9E9E9" transform="translate(540,256)"/>
<path d="M0 0 C3 0 6 0 9 0 C9.99 -0.061875 10.98 -0.12375 12 -0.1875 C15 0 15 0 16.67578125 1.03125 C18.71320528 4.0603406 18.31543492 7.17421015 18.1875 10.6875 C18.16719727 11.7403418 18.16719727 11.7403418 18.14648438 12.81445312 C18.11120182 14.54329829 18.05739583 16.27174765 18 18 C16.35 18 14.7 18 13 18 C12.67 14.04 12.34 10.08 12 6 C10.68 5.67 9.36 5.34 8 5 C6.12175109 6.87824891 6.60897603 10.03935276 6.4375 12.5625 C6.31181641 14.35880859 6.31181641 14.35880859 6.18359375 16.19140625 C6.12300781 17.11824219 6.06242187 18.04507812 6 19 C4.02 19 2.04 19 0 19 C0 12.73 0 6.46 0 0 Z " fill="#EAEAEA" transform="translate(280,256)"/>
<path d="M0 0 C2.31 0 4.62 0 7 0 C7.0580772 4.08327357 7.09362249 8.16644083 7.125 12.25 C7.14175781 13.40886719 7.15851563 14.56773437 7.17578125 15.76171875 C7.18222656 16.87675781 7.18867188 17.99179687 7.1953125 19.140625 C7.20578613 20.16704102 7.21625977 21.19345703 7.22705078 22.25097656 C6.9931839 25.08252617 6.56927994 26.65162179 5 29 C1.3558226 31.4294516 -0.71241272 31.16179575 -5 31 C-5 29.35 -5 27.7 -5 26 C-3.68 25.67 -2.36 25.34 -1 25 C-0.67 16.75 -0.34 8.5 0 0 Z " fill="#E3E3E3" transform="translate(457,250)"/>
<path d="M0 0 C5.5266604 0 10.56638732 0.01207042 16 1 C18 3 18 3 18.1953125 6.4765625 C18.18201493 7.85950968 18.15816232 9.24238654 18.125 10.625 C18.11597656 11.33140625 18.10695312 12.0378125 18.09765625 12.765625 C18.07407603 14.51056098 18.03820461 16.25532295 18 18 C16.35 18 14.7 18 13 18 C12.67 14.04 12.34 10.08 12 6 C10.68 5.67 9.36 5.34 8 5 C6.12175109 6.87824891 6.60897603 10.03935276 6.4375 12.5625 C6.31181641 14.35880859 6.31181641 14.35880859 6.18359375 16.19140625 C6.12300781 17.11824219 6.06242188 18.04507812 6 19 C4.02 19 2.04 19 0 19 C0 12.73 0 6.46 0 0 Z " fill="#EAEAEA" transform="translate(148,256)"/>
<path d="M0 0 C1.08667969 0.02707031 2.17335938 0.05414063 3.29296875 0.08203125 C4.54013672 0.13423828 4.54013672 0.13423828 5.8125 0.1875 C6.1425 1.8375 6.4725 3.4875 6.8125 5.1875 C3.5125 4.8575 0.2125 4.5275 -3.1875 4.1875 C-3.1875 5.1775 -3.1875 6.1675 -3.1875 7.1875 C-1.20182292 7.3828125 0.78385417 7.578125 2.76953125 7.7734375 C4.8125 8.1875 4.8125 8.1875 7.8125 10.1875 C7.5 13.5625 7.5 13.5625 6.8125 17.1875 C3.28570901 19.53869399 1.78370515 19.40193452 -2.375 19.3125 C-3.46167969 19.29445313 -4.54835938 19.27640625 -5.66796875 19.2578125 C-6.91513672 19.22300781 -6.91513672 19.22300781 -8.1875 19.1875 C-8.1875 17.5375 -8.1875 15.8875 -8.1875 14.1875 C-4.8875 14.5175 -1.5875 14.8475 1.8125 15.1875 C1.8125 14.1975 1.8125 13.2075 1.8125 12.1875 C-0.0746875 12.0328125 -0.0746875 12.0328125 -2 11.875 C-4.55274139 11.54517678 -5.98552006 11.31373746 -8.1875 9.9375 C-9.58153222 7.49794362 -9.60211694 5.95161292 -9.1875 3.1875 C-6.68860986 -0.42773281 -4.1728356 -0.1346076 0 0 Z " fill="#E4E4E4" transform="translate(384.1875,255.8125)"/>
<path d="M0 0 C1.98 0 3.96 0 6 0 C6 1.65 6 3.3 6 5 C7.98 5 9.96 5 12 5 C12 6.65 12 8.3 12 10 C10.02 10 8.04 10 6 10 C6 12.97 6 15.94 6 19 C7.98 19 9.96 19 12 19 C12 20.65 12 22.3 12 24 C4.86486486 24.47567568 4.86486486 24.47567568 1.5 22.625 C-0.81720603 18.56988944 -0.3135704 14.56419136 0 10 C-0.99 10 -1.98 10 -3 10 C-3 8.35 -3 6.7 -3 5 C-2.01 5 -1.02 5 0 5 C0 3.35 0 1.7 0 0 Z " fill="#E2E2E2" transform="translate(408,251)"/>
<path d="M0 0 C1.98 0 3.96 0 6 0 C7.32 3.3 8.64 6.6 10 10 C11.53521956 7.69717067 12.58357909 5.82137765 13.625 3.3125 C14.07875 2.219375 14.5325 1.12625 15 0 C16.98 0 18.96 0 21 0 C19.58632741 4.34671293 18.02739359 8.6135639 16.375 12.875 C15.92898438 14.02742188 15.48296875 15.17984375 15.0234375 16.3671875 C14.68570312 17.23601562 14.34796875 18.10484375 14 19 C11.69 19 9.38 19 7 19 C6.02016072 16.39608461 5.04110206 13.79188032 4.0625 11.1875 C3.64581055 10.08051758 3.64581055 10.08051758 3.22070312 8.95117188 C2.95322266 8.23896484 2.68574219 7.52675781 2.41015625 6.79296875 C2.16402588 6.1383667 1.91789551 5.48376465 1.66430664 4.80932617 C1.07962967 3.21688185 0.53644441 1.60933324 0 0 Z " fill="#E7E7E7" transform="translate(313,256)"/>
<path d="M0 0 C1.98 0 3.96 0 6 0 C6 8.58 6 17.16 6 26 C4.02 26 2.04 26 0 26 C0 17.42 0 8.84 0 0 Z " fill="#EAEAEA" transform="translate(230,249)"/>
<path d="M0 0 C4.33333333 0 8.66666667 0 13 0 C13 1.65 13 3.3 13 5 C11.02 5.66 9.04 6.32 7 7 C6.67 10.96 6.34 14.92 6 19 C4.02 19 2.04 19 0 19 C0 12.73 0 6.46 0 0 Z " fill="#FDFDFD" transform="translate(360,256)"/>
<path d="M0 0 C1.65 0 3.3 0 5 0 C6.51011533 3.02023067 6.38689513 6.15361141 6.62109375 9.4921875 C7.00613097 12.04057815 7.72413954 13.7788664 9 16 C7.68 15.67 6.36 15.34 5 15 C5 17.97 5 20.94 5 24 C3.35 24 1.7 24 0 24 C0 16.08 0 8.16 0 0 Z " fill="#F7F7F7" transform="translate(504,257)"/>
<path d="M0 0 C40.59 0 81.18 0 123 0 C123 0.33 123 0.66 123 1 C84.06 1 45.12 1 5 1 C5.33 2.65 5.66 4.3 6 6 C3.96166576 4.7260411 1.96147874 3.38938077 0 2 C0 1.34 0 0.68 0 0 Z " fill="#9D9D9D" transform="translate(235,17)"/>
<path d="M0 0 C1.32 0 2.64 0 4 0 C4 0.66 4 1.32 4 2 C4.66 2 5.32 2 6 2 C5.98259766 2.90492188 5.98259766 2.90492188 5.96484375 3.828125 C5.95582031 4.62734375 5.94679687 5.4265625 5.9375 6.25 C5.92589844 7.03890625 5.91429687 7.8278125 5.90234375 8.640625 C5.99614694 10.90691002 6.36758937 12.8288895 7 15 C6.34 15 5.68 15 5 15 C5 17.97 5 20.94 5 24 C3.35 24 1.7 24 0 24 C0 16.08 0 8.16 0 0 Z " fill="#FAFAFA" transform="translate(184,257)"/>
<path d="M0 0 C1.2065625 0.0309375 1.2065625 0.0309375 2.4375 0.0625 C2.4375 1.7125 2.4375 3.3625 2.4375 5.0625 C0.1275 5.7225 -2.1825 6.3825 -4.5625 7.0625 C-4.8925 10.6925 -5.2225 14.3225 -5.5625 18.0625 C-7.2125 18.0625 -8.8625 18.0625 -10.5625 18.0625 C-10.5625 12.4525 -10.5625 6.8425 -10.5625 1.0625 C-8.22916667 1.0625 -5.89583333 1.0625 -3.5625 1.0625 C-2.5625 0.0625 -2.5625 0.0625 0 0 Z " fill="#FBFBFB" transform="translate(562.5625,255.9375)"/>
<path d="M0 0 C1.98 0 3.96 0 6 0 C6 6.27 6 12.54 6 19 C4.02 19 2.04 19 0 19 C0 12.73 0 6.46 0 0 Z " fill="#EBEBEB" transform="translate(492,256)"/>
<path d="M0 0 C1.98 0 3.96 0 6 0 C6 6.27 6 12.54 6 19 C4.02 19 2.04 19 0 19 C0 12.73 0 6.46 0 0 Z " fill="#E9E9E9" transform="translate(396,256)"/>
<path d="M0 0 C1.98 0 3.96 0 6 0 C6 6.27 6 12.54 6 19 C4.02 19 2.04 19 0 19 C0 12.73 0 6.46 0 0 Z " fill="#E9E9E9" transform="translate(304,256)"/>
<path d="M0 0 C1.98 0 3.96 0 6 0 C6 6.27 6 12.54 6 19 C4.02 19 2.04 19 0 19 C0 12.73 0 6.46 0 0 Z " fill="#E4E4E4" transform="translate(172,256)"/>
<path d="M0 0 C1.65 0 3.3 0 5 0 C5.33 3.96 5.66 7.92 6 12 C7.65 12.33 9.3 12.66 11 13 C10.125 16.875 10.125 16.875 9 18 C3.74342389 18.45709357 3.74342389 18.45709357 1.31640625 16.96484375 C-0.71226431 13.93688739 -0.31525555 10.82086391 -0.1875 7.3125 C-0.17396484 6.61060547 -0.16042969 5.90871094 -0.14648438 5.18554688 C-0.11120182 3.45670171 -0.05739583 1.72825235 0 0 Z " fill="#F5F5F5" transform="translate(528,257)"/>
<path d="M0 0 C2 2 2 2 2.1953125 5.4765625 C2.18201493 6.85950968 2.15816232 8.24238654 2.125 9.625 C2.11597656 10.33140625 2.10695312 11.0378125 2.09765625 11.765625 C2.07407603 13.51056098 2.03820461 15.25532295 2 17 C0.35 17 -1.3 17 -3 17 C-3.33 13.04 -3.66 9.08 -4 5 C-5.65 4.67 -7.3 4.34 -9 4 C-9 2.68 -9 1.36 -9 0 C-5.88135455 -1.55932272 -3.33704665 -0.65549131 0 0 Z " fill="#F9F9F9" transform="translate(164,257)"/>
<path d="M0 0 C3.0625 0.1875 3.0625 0.1875 5.0625 2.1875 C5.20747985 4.76814129 5.24927545 7.23693884 5.1875 9.8125 C5.17847656 10.51890625 5.16945313 11.2253125 5.16015625 11.953125 C5.13657603 13.69806098 5.10070461 15.44282295 5.0625 17.1875 C3.4125 17.1875 1.7625 17.1875 0.0625 17.1875 C0.00191406 16.35605469 -0.05867188 15.52460938 -0.12109375 14.66796875 C-0.20488281 13.58128906 -0.28867187 12.49460937 -0.375 11.375 C-0.49681641 9.75658203 -0.49681641 9.75658203 -0.62109375 8.10546875 C-0.83962461 5.12760095 -0.83962461 5.12760095 -1.9375 2.1875 C-2.5975 1.8575 -3.2575 1.5275 -3.9375 1.1875 C-2.9375 0.1875 -2.9375 0.1875 0 0 Z " fill="#F9F9F9" transform="translate(292.9375,256.8125)"/>
<path d="M0 0 C-0.78890625 0.45890625 -1.5778125 0.9178125 -2.390625 1.390625 C-7.4727039 4.77668697 -11.51844007 9.38962546 -15.75 13.75 C-17.4485085 15.49928603 -19.15140268 17.24432808 -20.859375 18.984375 C-21.60670898 19.75491211 -22.35404297 20.52544922 -23.12402344 21.31933594 C-25 23 -25 23 -27 23 C-25.58246793 18.48967069 -23.35967785 16.26016694 -20 13 C-19.06693258 12.03842447 -18.13727814 11.07352625 -17.2109375 10.10546875 C-16.26566275 9.13277581 -15.32035005 8.16011976 -14.375 7.1875 C-13.89804687 6.68541016 -13.42109375 6.18332031 -12.9296875 5.66601562 C-11.67609998 4.3863117 -10.3422303 3.18639861 -9 2 C-8.01 2 -7.02 2 -6 2 C-6 1.34 -6 0.68 -6 0 C-2.25 -1.125 -2.25 -1.125 0 0 Z " fill="#333333" transform="translate(504,77)"/>
<path d="M0 0 C2.97 0.33 5.94 0.66 9 1 C9 1.66 9 2.32 9 3 C28.14 3 47.28 3 67 3 C67 3.33 67 3.66 67 4 C59.1502649 4.0696423 51.30060277 4.12288325 43.45063591 4.15543652 C39.8051954 4.17106391 36.15996693 4.19224805 32.51464844 4.22631836 C28.99386651 4.25901717 25.47328799 4.27687501 21.95236588 4.28463173 C19.96157365 4.29283732 17.97086275 4.31623998 15.98019409 4.33988953 C14.75938141 4.34011612 13.53856873 4.34034271 12.28076172 4.34057617 C11.21042694 4.34723801 10.14009216 4.35389984 9.037323 4.36076355 C5.50870139 3.94164512 3.07225007 2.7423057 0 1 C0 0.67 0 0.34 0 0 Z " fill="#949494" transform="translate(497,230)"/>
<path d="M0 0 C2.875 0.5625 2.875 0.5625 4.5625 2.5 C4.995625 3.180625 5.42875 3.86125 5.875 4.5625 C6.865 4.8925 7.855 5.2225 8.875 5.5625 C9.88027479 7.22599042 10.87907132 8.8933973 11.875 10.5625 C13.769868 12.75344112 15.812605 14.77999478 17.875 16.8125 C18.40867187 17.35390625 18.94234375 17.8953125 19.4921875 18.453125 C21.92197997 20.87082895 23.58038346 22.46429449 26.875 23.5625 C26.545 24.2225 26.215 24.8825 25.875 25.5625 C22.09679912 23.48731403 19.35037996 21.21638754 16.40625 18.078125 C15.58769531 17.22605469 14.76914062 16.37398437 13.92578125 15.49609375 C12.21744187 13.69880561 10.51696081 11.89401701 8.82421875 10.08203125 C8.00566406 9.23511719 7.18710937 8.38820312 6.34375 7.515625 C5.60576172 6.73348633 4.86777344 5.95134766 4.10742188 5.14550781 C1.9762406 3.2895186 1.9762406 3.2895186 -0.72851562 3.68652344 C-3.7293727 4.78341374 -5.74705277 6.45631816 -8.125 8.5625 C-8.125 5.5625 -8.125 5.5625 -6 2.875 C-3.125 0.5625 -3.125 0.5625 0 0 Z " fill="#B2B2B2" transform="translate(434.125,185.4375)"/>
<path d="M0 0 C4.55555556 0.55555556 4.55555556 0.55555556 6 2 C6.26293056 6.03160191 6.29404844 7.55892734 4 11 C1.5625 10.625 1.5625 10.625 -1 10 C-2.38125018 7.23749964 -2.19079306 5.05268901 -2 2 C-1.34 1.34 -0.68 0.68 0 0 Z " fill="#1F1F1F" transform="translate(191,260)"/>
<path d="M0 0 C4.33333333 0 8.66666667 0 13 0 C13 1.65 13 3.3 13 5 C11.02 5.33 9.04 5.66 7 6 C7 5.01 7 4.02 7 3 C6.34 3 5.68 3 5 3 C5 2.34 5 1.68 5 1 C3.68 1 2.36 1 1 1 C1 6.61 1 12.22 1 18 C2.32 18 3.64 18 5 18 C5 14.7 5 11.4 5 8 C5.33 8 5.66 8 6 8 C6 11.63 6 15.26 6 19 C4.02 19 2.04 19 0 19 C0 12.73 0 6.46 0 0 Z " fill="#CCCCCC" transform="translate(360,256)"/>
<path d="M0 0 C1.98 0.99 1.98 0.99 4 2 C3.67 2.66 3.34 3.32 3 4 C2.34 3.67 1.68 3.34 1 3 C1 22.14 1 41.28 1 61 C0.67 61 0.34 61 0 61 C0 40.87 0 20.74 0 0 Z " fill="#E1E1E1" transform="translate(129,103)"/>
<path d="M0 0 C3.53571429 0.53571429 3.53571429 0.53571429 5 2 C5.1875 5.4375 5.1875 5.4375 5 9 C4.34 9.66 3.68 10.32 3 11 C-0.53571429 10.46428571 -0.53571429 10.46428571 -2 9 C-2.1875 5.5625 -2.1875 5.5625 -2 2 C-1.34 1.34 -0.68 0.68 0 0 Z " fill="#0D0D0D" transform="translate(512,260)"/>
<path d="M0 0 C0.33 0 0.66 0 1 0 C1 1.65 1 3.3 1 5 C-3.22949995 7.41685712 -6.12335991 8.34833144 -11 8 C-11.66 6.68 -12.32 5.36 -13 4 C-8.71 4 -4.42 4 0 4 C0 2.68 0 1.36 0 0 Z " fill="#141414" transform="translate(355,263)"/>
<path d="M0 0 C0.66 0.33 1.32 0.66 2 1 C0.37660195 2.70884005 -1.29319053 4.37446717 -3 6 C-3.66 6 -4.32 6 -5 6 C-4.67 7.65 -4.34 9.3 -4 11 C-6.64 11 -9.28 11 -12 11 C-11.67 9.68 -11.34 8.36 -11 7 C-9.68 7 -8.36 7 -7 7 C-7 6.34 -7 5.68 -7 5 C-5.35666496 3.96210419 -3.68756133 2.96432076 -2 2 C-1.34 1.34 -0.68 0.68 0 0 Z " fill="#C7C7C7" transform="translate(251,222)"/>
<path d="M0 0 C-1.08667969 0.48919922 -1.08667969 0.48919922 -2.1953125 0.98828125 C-3.16210938 1.42527344 -4.12890625 1.86226562 -5.125 2.3125 C-6.12917969 2.76496094 -7.13335937 3.21742187 -8.16796875 3.68359375 C-10.29448316 4.67205631 -12.37881677 5.75208187 -14.4375 6.875 C-17.33591789 8.14747615 -18.09586418 7.90022045 -21 7 C-3.97969543 -1.98984772 -3.97969543 -1.98984772 0 0 Z " fill="#868686" transform="translate(496,22)"/>
<path d="M0 0 C1.4540625 0.0309375 1.4540625 0.0309375 2.9375 0.0625 C2.6075 1.3825 2.2775 2.7025 1.9375 4.0625 C0.2875 4.3925 -1.3625 4.7225 -3.0625 5.0625 C-3.625 3.125 -3.625 3.125 -4.0625 1.0625 C-3.0625 0.0625 -3.0625 0.0625 0 0 Z " fill="#303030" transform="translate(134.0625,265.9375)"/>
<path d="M0 0 C1.98 0 3.96 0 6 0 C6 1.65 6 3.3 6 5 C4.02 5 2.04 5 0 5 C0 3.35 0 1.7 0 0 Z " fill="#E8E8E8" transform="translate(396,249)"/>
<path d="M0 0 C1.98 0 3.96 0 6 0 C6 1.65 6 3.3 6 5 C4.02 5 2.04 5 0 5 C0 3.35 0 1.7 0 0 Z " fill="#EBEBEB" transform="translate(492,249)"/>
<path d="M0 0 C1.98 0 3.96 0 6 0 C6 1.65 6 3.3 6 5 C4.02 5 2.04 5 0 5 C0 3.35 0 1.7 0 0 Z " fill="#E9E9E9" transform="translate(304,249)"/>
<path d="M0 0 C1.98 0 3.96 0 6 0 C6 1.65 6 3.3 6 5 C4.02 5 2.04 5 0 5 C0 3.35 0 1.7 0 0 Z " fill="#E4E4E4" transform="translate(172,249)"/>
<path d="M0 0 C1.2065625 0.0309375 1.2065625 0.0309375 2.4375 0.0625 C2.1075 1.3825 1.7775 2.7025 1.4375 4.0625 C-0.2125 4.3925 -1.8625 4.7225 -3.5625 5.0625 C-3.5625 0.08689024 -3.5625 0.08689024 0 0 Z " fill="#252525" transform="translate(478.5625,265.9375)"/>
<path d="M0 0 C1.65 0 3.3 0 5 0 C4.67 1.65 4.34 3.3 4 5 C2.35 5 0.7 5 -1 5 C-0.67 3.35 -0.34 1.7 0 0 Z " fill="#282828" transform="translate(213,266)"/>
<path d="M0 0 C2.64 0 5.28 0 8 0 C8.33 0.99 8.66 1.98 9 3 C5.7 3.33 2.4 3.66 -1 4 C-0.67 2.68 -0.34 1.36 0 0 Z " fill="#121212" transform="translate(472,260)"/>
<path d="M0 0 C2.125 0.375 2.125 0.375 4 1 C2.75803878 2.15454162 1.50607155 3.29832562 0.25 4.4375 C-0.79414063 5.39462891 -0.79414063 5.39462891 -1.859375 6.37109375 C-3.98792725 7.99081325 -5.39023405 8.58267256 -8 9 C-7.04270084 7.87411986 -6.08412105 6.7493285 -5.125 5.625 C-4.59132813 4.99851563 -4.05765625 4.37203125 -3.5078125 3.7265625 C-2.38567993 2.44163349 -1.20628025 1.20628025 0 0 Z " fill="#2E2E2E" transform="translate(432,188)"/>
<path d="M0 0 C2.97 0 5.94 0 9 0 C9 0.99 9 1.98 9 3 C4.545 3.495 4.545 3.495 0 4 C0 2.68 0 1.36 0 0 Z " fill="#141414" transform="translate(127,260)"/>
<path d="M0 0 C2.64 0 5.28 0 8 0 C8.33 0.99 8.66 1.98 9 3 C6.03 3 3.06 3 0 3 C0 2.01 0 1.02 0 0 Z " fill="#0D0D0D" transform="translate(209,260)"/>
<path d="M0 0 C1.65 0 3.3 0 5 0 C5 1.65 5 3.3 5 5 C2.03 4.505 2.03 4.505 -1 4 C-0.67 2.68 -0.34 1.36 0 0 Z " fill="#E6E6E6" transform="translate(560,256)"/>
<path d="M0 0 C4.15414253 1.22736029 6.43688534 2.327664 10 5 C6.7 4.34 3.4 3.68 0 3 C0 2.01 0 1.02 0 0 Z " fill="#999999" transform="translate(496,172)"/>
<path d="M0 0 C1.65 0 3.3 0 5 0 C5.33 0.99 5.66 1.98 6 3 C4.02 3 2.04 3 0 3 C0 2.01 0 1.02 0 0 Z " fill="#151515" transform="translate(343,260)"/>
<path d="M0 0 C0 0.33 0 0.66 0 1 C-1.175625 1.12375 -1.175625 1.12375 -2.375 1.25 C-5.14749104 1.72806339 -5.14749104 1.72806339 -6.3125 4.0625 C-6.6528125 5.0215625 -6.6528125 5.0215625 -7 6 C-7.66 4.68 -8.32 3.36 -9 2 C-5.5647952 -0.29013653 -4.014669 -0.17842973 0 0 Z " fill="#D8D8D8" transform="translate(518,256)"/>
</svg>
